<svg xmlns="http://www.w3.org/2000/svg" xmlns:xlink="http://www.w3.org/1999/xlink" width="2000" zoomAndPan="magnify" viewBox="0 0 1500 1499.999933" height="2000" preserveAspectRatio="xMidYMid meet" version="1.0"><defs><g/><clipPath id="8590884393"><path d="M 285 38.558594 L 1240 38.558594 L 1240 384 L 285 384 Z M 285 38.558594 " clip-rule="nonzero"/></clipPath><clipPath id="2ac10e6a9e"><path d="M 481 704 L 797 704 L 797 830.476562 L 481 830.476562 Z M 481 704 " clip-rule="nonzero"/></clipPath><clipPath id="0c84b2aac2"><path d="M 669 633.976562 L 808 633.976562 L 808 781 L 669 781 Z M 669 633.976562 " clip-rule="nonzero"/></clipPath><clipPath id="f3dd8fea7d"><path d="M 827 704 L 1143 704 L 1143 830.476562 L 827 830.476562 Z M 827 704 " clip-rule="nonzero"/></clipPath><clipPath id="c563ce0060"><path d="M 817 633.976562 L 956 633.976562 L 956 781 L 817 781 Z M 817 633.976562 " clip-rule="nonzero"/></clipPath></defs><path fill="#30b0f2" d="M 1257.542969 563.207031 C 1084.042969 363.242188 798.570312 300.742188 559.347656 409.34375 C 315.355469 520.046875 174.371094 783.773438 217.675781 1050.164062 C 124.339844 766.398438 262.382812 456.289062 530.617188 337.175781 C 791.144531 221.566406 1103.945312 317.277344 1257.542969 563.207031 Z M 1257.542969 563.207031 " fill-opacity="1" fill-rule="nonzero"/><path fill="#1a3f90" d="M 590.175781 448.582031 C 374.355469 578.203125 274.855469 835.902344 346.1875 1065.996094 C 410.09375 1272.410156 600.40625 1421.230469 823.65625 1437.34375 C 574.761719 1461.308594 345.207031 1309.964844 274.011719 1085.054688 C 194.832031 835.203125 329.511719 550.734375 590.175781 448.582031 Z M 590.175781 448.582031 " fill-opacity="1" fill-rule="nonzero"/><g clip-path="url(#8590884393)"><path fill="#1a3f90" d="M 1210.03125 331.289062 L 1210.03125 229.695312 L 1239.183594 221.566406 L 762.132812 38.558594 L 285.085938 221.566406 L 441.066406 266.96875 C 441.066406 303.125 441.066406 339.417969 441.066406 375.570312 C 483.527344 346.84375 596.765625 278.320312 756.949219 276.5 C 925.261719 274.539062 1044.523438 347.125 1086.425781 375.570312 C 1086.285156 347.40625 1086.144531 319.378906 1086.007812 291.214844 C 1072.132812 284.207031 1057.695312 277.199219 1042.703125 270.332031 C 1002.058594 251.976562 962.960938 237.683594 926.523438 226.332031 C 960.296875 228.292969 1000.796875 234.179688 1044.804688 248.613281 C 1059.800781 253.519531 1073.671875 258.84375 1086.425781 264.589844 L 1194.195312 234.320312 L 1194.195312 331.429688 C 1183.40625 334.792969 1175.558594 344.882812 1175.558594 356.792969 C 1175.558594 371.507812 1187.46875 383.417969 1202.183594 383.417969 C 1216.898438 383.417969 1228.8125 371.507812 1228.8125 356.792969 C 1228.671875 344.742188 1220.824219 334.652344 1210.03125 331.289062 Z M 1210.03125 331.289062 " fill-opacity="1" fill-rule="nonzero"/></g><g clip-path="url(#2ac10e6a9e)"><path fill="#1a3f90" d="M 481.519531 704.523438 L 545.699219 830.371094 L 508.835938 730.117188 C 508.835938 730.117188 709.207031 746.960938 796.597656 830.371094 C 796.597656 830.371094 764.507812 732.636719 481.519531 704.523438 Z M 481.519531 704.523438 " fill-opacity="1" fill-rule="nonzero"/></g><path fill="#1a3f90" d="M 584.554688 658.375 L 584.554688 704.523438 C 728.304688 722.957031 807.605469 805.175781 807.605469 805.175781 C 749.652344 702.933594 584.554688 658.375 584.554688 658.375 Z M 584.554688 658.375 " fill-opacity="1" fill-rule="nonzero"/><g clip-path="url(#0c84b2aac2)"><path fill="#1a3f90" d="M 669.027344 633.976562 L 669.027344 674.820312 C 760.394531 711.683594 807.472656 780.640625 807.472656 780.640625 C 775.246094 685.296875 669.027344 633.976562 669.027344 633.976562 Z M 669.027344 633.976562 " fill-opacity="1" fill-rule="nonzero"/></g><g clip-path="url(#f3dd8fea7d)"><path fill="#1a3f90" d="M 1142.972656 704.523438 C 859.984375 732.636719 827.894531 830.371094 827.894531 830.371094 C 915.28125 746.960938 1115.65625 730.117188 1115.65625 730.117188 L 1078.789062 830.371094 Z M 1142.972656 704.523438 " fill-opacity="1" fill-rule="nonzero"/></g><path fill="#1a3f90" d="M 1040.070312 658.375 C 1040.070312 658.375 874.96875 702.800781 817.019531 805.042969 C 817.019531 805.042969 896.320312 722.824219 1040.070312 704.390625 Z M 1040.070312 658.375 " fill-opacity="1" fill-rule="nonzero"/><g clip-path="url(#c563ce0060)"><path fill="#1a3f90" d="M 955.464844 674.820312 L 955.464844 633.976562 C 955.464844 633.976562 849.242188 685.296875 817.019531 780.640625 C 817.019531 780.640625 864.097656 711.683594 955.464844 674.820312 Z M 955.464844 674.820312 " fill-opacity="1" fill-rule="nonzero"/></g><g fill="#1a3f90" fill-opacity="1"><g transform="translate(386.508456, 961.920665)"><g><path d="M 11.84375 0 L 11.84375 -127.234375 L 72.140625 -127.234375 C 80.316406 -127.234375 87.734375 -125.328125 94.390625 -121.515625 C 101.046875 -117.703125 106.3125 -112.644531 110.1875 -106.34375 C 114.070312 -100.039062 116.015625 -93.078125 116.015625 -85.453125 C 116.015625 -77.960938 114.070312 -71.03125 110.1875 -64.65625 C 106.3125 -58.28125 101.046875 -53.1875 94.390625 -49.375 C 87.734375 -45.5625 80.316406 -43.65625 72.140625 -43.65625 L 43.03125 -43.65625 L 43.03125 0 Z M 72.140625 -98.34375 L 43.03125 -98.34375 L 43.03125 -72.5625 L 72.140625 -72.5625 C 75.742188 -72.5625 78.757812 -73.804688 81.1875 -76.296875 C 83.613281 -78.796875 84.828125 -81.847656 84.828125 -85.453125 C 84.828125 -89.054688 83.613281 -92.101562 81.1875 -94.59375 C 78.757812 -97.09375 75.742188 -98.34375 72.140625 -98.34375 Z M 72.140625 -98.34375 "/></g></g></g><g fill="#1a3f90" fill-opacity="1"><g transform="translate(522.059327, 961.920665)"><g><path d="M 83.578125 -51.96875 L 83.578125 -103.953125 L 114.765625 -103.953125 L 114.765625 -5.40625 C 114.765625 4.4375 112.582031 13.375 108.21875 21.40625 C 103.851562 29.445312 97.582031 35.859375 89.40625 40.640625 C 81.226562 45.421875 71.316406 47.8125 59.671875 47.8125 C 47.335938 47.8125 36.457031 46.289062 27.03125 43.25 L 27.03125 11.234375 C 30.632812 13.171875 35.242188 14.726562 40.859375 15.90625 C 46.472656 17.082031 52.1875 17.671875 58 17.671875 C 67.5625 17.671875 74.210938 15.382812 77.953125 10.8125 C 81.703125 6.238281 83.578125 0.765625 83.578125 -5.609375 L 83.578125 -10.390625 C 80.523438 -6.929688 76.742188 -4.160156 72.234375 -2.078125 C 67.734375 0.00390625 62.644531 1.046875 56.96875 1.046875 C 47.539062 1.046875 39.1875 -1.304688 31.90625 -6.015625 C 24.632812 -10.734375 18.953125 -17.113281 14.859375 -25.15625 C 10.773438 -33.195312 8.734375 -42.132812 8.734375 -51.96875 L 8.734375 -103.953125 L 39.921875 -103.953125 L 39.921875 -51.96875 C 39.921875 -44.769531 41.546875 -38.953125 44.796875 -34.515625 C 48.054688 -30.078125 53.359375 -27.859375 60.703125 -27.859375 C 68.054688 -27.859375 73.707031 -30.109375 77.65625 -34.609375 C 81.601562 -39.117188 83.578125 -44.90625 83.578125 -51.96875 Z M 83.578125 -51.96875 "/></g></g></g><g fill="#1a3f90" fill-opacity="1"><g transform="translate(663.43142, 961.920665)"><g><path d="M 41.578125 -51.96875 L 41.578125 0 L 10.390625 0 L 10.390625 -51.765625 C 10.390625 -61.609375 12.609375 -70.546875 17.046875 -78.578125 C 21.484375 -86.617188 27.960938 -93.03125 36.484375 -97.8125 C 45.015625 -102.601562 55.445312 -105 67.78125 -105 C 68.882812 -105 70.195312 -104.894531 71.71875 -104.6875 C 73.25 -104.476562 74.773438 -104.234375 76.296875 -103.953125 L 76.296875 -73.8125 C 75.328125 -73.945312 74.078125 -74.148438 72.546875 -74.421875 C 71.023438 -74.703125 69.78125 -74.84375 68.8125 -74.84375 C 58.5625 -74.84375 51.457031 -72.660156 47.5 -68.296875 C 43.550781 -63.929688 41.578125 -58.488281 41.578125 -51.96875 Z M 41.578125 -51.96875 "/></g></g></g><g fill="#1a3f90" fill-opacity="1"><g transform="translate(756.154923, 961.920665)"><g><path d="M 83.375 -51.96875 C 82.957031 -59.457031 80.910156 -65.347656 77.234375 -69.640625 C 73.566406 -73.941406 67.78125 -76.09375 59.875 -76.09375 C 51.144531 -76.09375 44.90625 -73.703125 41.15625 -68.921875 C 37.414062 -64.140625 35.546875 -58.421875 35.546875 -51.765625 C 35.546875 -45.253906 37.382812 -39.640625 41.0625 -34.921875 C 44.738281 -30.210938 51.007812 -27.859375 59.875 -27.859375 C 67.21875 -27.859375 72.96875 -29.796875 77.125 -33.671875 C 81.289062 -37.554688 83.375 -43.65625 83.375 -51.96875 Z M 122.875 0 L 91.6875 0 C 90.570312 -2.632812 89.597656 -5.265625 88.765625 -7.890625 C 87.941406 -10.523438 87.179688 -13.160156 86.484375 -15.796875 C 83.441406 -10.671875 79.320312 -6.582031 74.125 -3.53125 C 68.925781 -0.476562 62.648438 1.046875 55.296875 1.046875 C 45.878906 1.046875 37.285156 -1.34375 29.515625 -6.125 C 21.753906 -10.914062 15.617188 -17.328125 11.109375 -25.359375 C 6.609375 -33.398438 4.359375 -42.410156 4.359375 -52.390625 C 4.359375 -61.953125 6.539062 -70.71875 10.90625 -78.6875 C 15.28125 -86.65625 21.625 -93.03125 29.9375 -97.8125 C 38.25 -102.601562 48.226562 -105 59.875 -105 C 70.820312 -105 80.316406 -102.847656 88.359375 -98.546875 C 96.398438 -94.253906 102.671875 -88.117188 107.171875 -80.140625 C 111.679688 -72.171875 114.144531 -62.78125 114.5625 -51.96875 C 114.695312 -48.507812 114.832031 -44.003906 114.96875 -38.453125 C 115.113281 -32.910156 115.703125 -26.8125 116.734375 -20.15625 C 117.773438 -13.507812 119.820312 -6.789062 122.875 0 Z M 122.875 0 "/></g></g></g><g fill="#1a3f90" fill-opacity="1"><g transform="translate(897.319063, 961.920665)"><g><path d="M 176.71875 -56.140625 L 176.71875 0 L 145.53125 0 L 145.53125 -56.140625 C 145.53125 -61.953125 144.039062 -66.726562 141.0625 -70.46875 C 138.082031 -74.21875 133.546875 -76.09375 127.453125 -76.09375 C 121.484375 -76.09375 116.941406 -74.21875 113.828125 -70.46875 C 110.710938 -66.726562 109.15625 -61.953125 109.15625 -56.140625 L 109.15625 0 L 77.96875 0 L 77.96875 -56.140625 C 77.96875 -61.953125 76.40625 -66.726562 73.28125 -70.46875 C 70.164062 -74.21875 65.5625 -76.09375 59.46875 -76.09375 C 53.363281 -76.09375 48.851562 -74.21875 45.9375 -70.46875 C 43.03125 -66.726562 41.578125 -61.953125 41.578125 -56.140625 L 41.578125 0 L 10.390625 0 L 10.390625 -56.140625 C 10.390625 -65.148438 12.296875 -73.359375 16.109375 -80.765625 C 19.921875 -88.179688 25.5 -94.070312 32.84375 -98.4375 C 40.195312 -102.8125 49.207031 -105 59.875 -105 C 67.5 -105 74.148438 -103.226562 79.828125 -99.6875 C 85.515625 -96.15625 90.09375 -91.410156 93.5625 -85.453125 C 97.019531 -91.410156 101.585938 -96.15625 107.265625 -99.6875 C 112.953125 -103.226562 119.609375 -105 127.234375 -105 C 137.910156 -105 146.921875 -102.8125 154.265625 -98.4375 C 161.609375 -94.070312 167.1875 -88.179688 171 -80.765625 C 174.8125 -73.359375 176.71875 -65.148438 176.71875 -56.140625 Z M 176.71875 -56.140625 "/></g></g></g><g fill="#1a3f90" fill-opacity="1"><g transform="translate(1098.982023, 961.920665)"><g><path d="M 9.359375 -103.953125 L 40.546875 -103.953125 L 40.546875 0 L 9.359375 0 Z M 24.953125 -113.71875 C 19.398438 -113.71875 14.992188 -115.484375 11.734375 -119.015625 C 8.484375 -122.554688 6.859375 -126.820312 6.859375 -131.8125 C 6.859375 -136.664062 8.484375 -140.859375 11.734375 -144.390625 C 14.992188 -147.921875 19.398438 -149.6875 24.953125 -149.6875 C 30.628906 -149.6875 35.023438 -147.921875 38.140625 -144.390625 C 41.265625 -140.859375 42.828125 -136.664062 42.828125 -131.8125 C 42.828125 -126.6875 41.265625 -122.390625 38.140625 -118.921875 C 35.023438 -115.453125 30.628906 -113.71875 24.953125 -113.71875 Z M 24.953125 -113.71875 "/></g></g></g><g fill="#1a3f90" fill-opacity="1"><g transform="translate(1167.173424, 961.920665)"><g><path d="M 83.375 -51.96875 C 83.375 -60.15625 81.289062 -66.222656 77.125 -70.171875 C 72.96875 -74.117188 67.21875 -76.09375 59.875 -76.09375 C 51.007812 -76.09375 44.738281 -73.703125 41.0625 -68.921875 C 37.382812 -64.140625 35.546875 -58.488281 35.546875 -51.96875 C 35.546875 -45.457031 37.382812 -39.8125 41.0625 -35.03125 C 44.738281 -30.25 51.007812 -27.859375 59.875 -27.859375 C 67.21875 -27.859375 72.96875 -29.796875 77.125 -33.671875 C 81.289062 -37.554688 83.375 -43.65625 83.375 -51.96875 Z M 83.375 -93.5625 L 83.375 -145.53125 L 114.5625 -145.53125 L 114.5625 -51.96875 C 114.5625 -42.269531 112.445312 -33.398438 108.21875 -25.359375 C 103.988281 -17.328125 97.785156 -10.914062 89.609375 -6.125 C 81.429688 -1.34375 71.453125 1.046875 59.671875 1.046875 C 47.472656 1.046875 37.285156 -1.445312 29.109375 -6.4375 C 20.929688 -11.4375 14.757812 -17.921875 10.59375 -25.890625 C 6.4375 -33.859375 4.359375 -42.414062 4.359375 -51.5625 C 4.359375 -61.539062 6.644531 -70.582031 11.21875 -78.6875 C 15.800781 -86.800781 21.9375 -93.210938 29.625 -97.921875 C 37.320312 -102.640625 45.953125 -105 55.515625 -105 C 61.609375 -105 66.976562 -103.992188 71.625 -101.984375 C 76.269531 -99.972656 80.1875 -97.164062 83.375 -93.5625 Z M 83.375 -93.5625 "/></g></g></g><g fill="#000000" fill-opacity="1"><g transform="translate(598.98519, 1163.925984)"><g><path d="M 11.84375 -127.234375 L 106.453125 -127.234375 L 106.453125 -98.34375 L 43.03125 -98.34375 L 43.03125 -77.96875 L 93.96875 -77.96875 L 93.96875 -49.0625 L 43.03125 -49.0625 L 43.03125 -28.90625 L 106.453125 -28.90625 L 106.453125 0 L 11.84375 0 Z M 11.84375 -127.234375 "/></g></g></g><g fill="#000000" fill-opacity="1"><g transform="translate(725.804254, 1163.925984)"><g><path d="M 83.375 -51.96875 C 83.375 -60.15625 81.289062 -66.222656 77.125 -70.171875 C 72.96875 -74.117188 67.21875 -76.09375 59.875 -76.09375 C 51.007812 -76.09375 44.738281 -73.703125 41.0625 -68.921875 C 37.382812 -64.140625 35.546875 -58.488281 35.546875 -51.96875 C 35.546875 -45.457031 37.382812 -39.8125 41.0625 -35.03125 C 44.738281 -30.25 51.007812 -27.859375 59.875 -27.859375 C 67.21875 -27.859375 72.96875 -29.796875 77.125 -33.671875 C 81.289062 -37.554688 83.375 -43.65625 83.375 -51.96875 Z M 83.375 -93.5625 L 83.375 -145.53125 L 114.5625 -145.53125 L 114.5625 -51.96875 C 114.5625 -42.269531 112.445312 -33.398438 108.21875 -25.359375 C 103.988281 -17.328125 97.785156 -10.914062 89.609375 -6.125 C 81.429688 -1.34375 71.453125 1.046875 59.671875 1.046875 C 47.472656 1.046875 37.285156 -1.445312 29.109375 -6.4375 C 20.929688 -11.4375 14.757812 -17.921875 10.59375 -25.890625 C 6.4375 -33.859375 4.359375 -42.414062 4.359375 -51.5625 C 4.359375 -61.539062 6.644531 -70.582031 11.21875 -78.6875 C 15.800781 -86.800781 21.9375 -93.210938 29.625 -97.921875 C 37.320312 -102.640625 45.953125 -105 55.515625 -105 C 61.609375 -105 66.976562 -103.992188 71.625 -101.984375 C 76.269531 -99.972656 80.1875 -97.164062 83.375 -93.5625 Z M 83.375 -93.5625 "/></g></g></g><g fill="#000000" fill-opacity="1"><g transform="translate(866.968394, 1163.925984)"><g><path d="M 83.578125 -103.953125 L 114.765625 -103.953125 L 114.765625 -51.96875 C 114.765625 -42.132812 112.6875 -33.195312 108.53125 -25.15625 C 104.375 -17.113281 98.34375 -10.734375 90.4375 -6.015625 C 82.539062 -1.304688 72.976562 1.046875 61.75 1.046875 C 50.65625 1.046875 41.125 -1.304688 33.15625 -6.015625 C 25.1875 -10.734375 19.125 -17.113281 14.96875 -25.15625 C 10.8125 -33.195312 8.734375 -42.132812 8.734375 -51.96875 L 8.734375 -103.953125 L 39.921875 -103.953125 L 39.921875 -51.96875 C 39.921875 -44.90625 41.722656 -39.117188 45.328125 -34.609375 C 48.929688 -30.109375 54.40625 -27.859375 61.75 -27.859375 C 69.09375 -27.859375 74.566406 -30.109375 78.171875 -34.609375 C 81.773438 -39.117188 83.578125 -44.90625 83.578125 -51.96875 Z M 83.578125 -103.953125 "/></g></g></g></svg>