<svg xmlns="http://www.w3.org/2000/svg" xmlns:xlink="http://www.w3.org/1999/xlink" width="1500" height="1100" viewBox="0 0 1500 1100" preserveAspectRatio="xMidYMid meet" version="1.0"><defs><g/><clipPath id="8590884393"><path d="M 285 38.558594 L 1240 38.558594 L 1240 384 L 285 384 Z M 285 38.558594 " clip-rule="nonzero"/></clipPath><clipPath id="2ac10e6a9e"><path d="M 481 704 L 797 704 L 797 830.476562 L 481 830.476562 Z M 481 704 " clip-rule="nonzero"/></clipPath><clipPath id="0c84b2aac2"><path d="M 669 633.976562 L 808 633.976562 L 808 781 L 669 781 Z M 669 633.976562 " clip-rule="nonzero"/></clipPath><clipPath id="f3dd8fea7d"><path d="M 827 704 L 1143 704 L 1143 830.476562 L 827 830.476562 Z M 827 704 " clip-rule="nonzero"/></clipPath><clipPath id="c563ce0060"><path d="M 817 633.976562 L 956 633.976562 L 956 781 L 817 781 Z M 817 633.976562 " clip-rule="nonzero"/></clipPath></defs><path fill="#30b0f2" d="M 1257.542969 563.207031 C 1084.042969 363.242188 798.570312 300.742188 559.347656 409.34375 C 315.355469 520.046875 174.371094 783.773438 217.675781 1050.164062 C 124.339844 766.398438 262.382812 456.289062 530.617188 337.175781 C 791.144531 221.566406 1103.945312 317.277344 1257.542969 563.207031 Z M 1257.542969 563.207031 " fill-opacity="1" fill-rule="nonzero"/><path fill="#1a3f90" d="M 590.175781 448.582031 C 374.355469 578.203125 274.855469 835.902344 346.1875 1065.996094 C 410.09375 1272.410156 600.40625 1421.230469 823.65625 1437.34375 C 574.761719 1461.308594 345.207031 1309.964844 274.011719 1085.054688 C 194.832031 835.203125 329.511719 550.734375 590.175781 448.582031 Z M 590.175781 448.582031 " fill-opacity="1" fill-rule="nonzero"/><g clip-path="url(#8590884393)"><path fill="#1a3f90" d="M 1210.03125 331.289062 L 1210.03125 229.695312 L 1239.183594 221.566406 L 762.132812 38.558594 L 285.085938 221.566406 L 441.066406 266.96875 C 441.066406 303.125 441.066406 339.417969 441.066406 375.570312 C 483.527344 346.84375 596.765625 278.320312 756.949219 276.5 C 925.261719 274.539062 1044.523438 347.125 1086.425781 375.570312 C 1086.285156 347.40625 1086.144531 319.378906 1086.007812 291.214844 C 1072.132812 284.207031 1057.695312 277.199219 1042.703125 270.332031 C 1002.058594 251.976562 962.960938 237.683594 926.523438 226.332031 C 960.296875 228.292969 1000.796875 234.179688 1044.804688 248.613281 C 1059.800781 253.519531 1073.671875 258.84375 1086.425781 264.589844 L 1194.195312 234.320312 L 1194.195312 331.429688 C 1183.40625 334.792969 1175.558594 344.882812 1175.558594 356.792969 C 1175.558594 371.507812 1187.46875 383.417969 1202.183594 383.417969 C 1216.898438 383.417969 1228.8125 371.507812 1228.8125 356.792969 C 1228.671875 344.742188 1220.824219 334.652344 1210.03125 331.289062 Z M 1210.03125 331.289062 " fill-opacity="1" fill-rule="nonzero"/></g><g clip-path="url(#2ac10e6a9e)"><path fill="#1a3f90" d="M 481.519531 704.523438 L 545.699219 830.371094 L 508.835938 730.117188 C 508.835938 730.117188 709.207031 746.960938 796.597656 830.371094 C 796.597656 830.371094 764.507812 732.636719 481.519531 704.523438 Z M 481.519531 704.523438 " fill-opacity="1" fill-rule="nonzero"/></g><path fill="#1a3f90" d="M 584.554688 658.375 L 584.554688 704.523438 C 728.304688 722.957031 807.605469 805.175781 807.605469 805.175781 C 749.652344 702.933594 584.554688 658.375 584.554688 658.375 Z M 584.554688 658.375 " fill-opacity="1" fill-rule="nonzero"/><g clip-path="url(#0c84b2aac2)"><path fill="#1a3f90" d="M 669.027344 633.976562 L 669.027344 674.820312 C 760.394531 711.683594 807.472656 780.640625 807.472656 780.640625 C 775.246094 685.296875 669.027344 633.976562 669.027344 633.976562 Z M 669.027344 633.976562 " fill-opacity="1" fill-rule="nonzero"/></g><g clip-path="url(#f3dd8fea7d)"><path fill="#1a3f90" d="M 1142.972656 704.523438 C 859.984375 732.636719 827.894531 830.371094 827.894531 830.371094 C 915.28125 746.960938 1115.65625 730.117188 1115.65625 730.117188 L 1078.789062 830.371094 Z M 1142.972656 704.523438 " fill-opacity="1" fill-rule="nonzero"/></g><path fill="#1a3f90" d="M 1040.070312 658.375 C 1040.070312 658.375 874.96875 702.800781 817.019531 805.042969 C 817.019531 805.042969 896.320312 722.824219 1040.070312 704.390625 Z M 1040.070312 658.375 " fill-opacity="1" fill-rule="nonzero"/><g clip-path="url(#c563ce0060)"><path fill="#1a3f90" d="M 955.464844 674.820312 L 955.464844 633.976562 C 955.464844 633.976562 849.242188 685.296875 817.019531 780.640625 C 817.019531 780.640625 864.097656 711.683594 955.464844 674.820312 Z M 955.464844 674.820312 " fill-opacity="1" fill-rule="nonzero"/></g></svg>
